<svg width="56" height="56" viewBox="0 0 56 56" fill="none" xmlns="http://www.w3.org/2000/svg">
<path d="M28 56C22.4621 56 17.0486 54.3578 12.444 51.2812C7.83947 48.2045 4.25064 43.8315 2.13138 38.7151C0.0121305 33.5988 -0.542361 27.969 0.538025 22.5375C1.61841 17.106 4.28516 12.1169 8.20103 8.20103C12.1169 4.28516 17.106 1.61841 22.5375 0.538025C27.969 -0.542361 33.5988 0.0121305 38.7152 2.13138C43.8315 4.25064 48.2045 7.83947 51.2812 12.444C54.3578 17.0486 56 22.4621 56 28C55.9917 35.4235 53.039 42.5406 47.7898 47.7898C42.5406 53.039 35.4235 55.9916 28 56ZM28 1.70271C22.7952 1.70271 17.7072 3.24613 13.3795 6.1378C9.05182 9.02946 5.67881 13.1395 3.687 17.9481C1.69519 22.7568 1.17405 28.0481 2.18947 33.153C3.20488 38.2578 5.71125 42.9469 9.39164 46.6273C13.072 50.3077 17.7611 52.8141 22.866 53.8295C27.9708 54.8449 33.2621 54.3238 38.0708 52.332C42.8794 50.3401 46.9895 46.9671 49.8811 42.6394C52.7728 38.3118 54.3162 33.2238 54.3162 28.0189C54.3079 21.042 51.5326 14.3532 46.5992 9.41978C41.6658 4.48634 34.977 1.71106 28 1.70271Z" fill="#172C66"/>
<path d="M25.6793 32.8241L23.4342 39.0484L14.3342 16.9448H19.1207L25.6793 32.8241Z" fill="#172C66"/>
<path d="M27.9874 23.2828C29.6487 23.2828 30.9955 21.936 30.9955 20.2747C30.9955 18.6134 29.6487 17.2666 27.9874 17.2666C26.326 17.2666 24.9792 18.6134 24.9792 20.2747C24.9792 21.936 26.326 23.2828 27.9874 23.2828Z" fill="#172C66"/>
<path d="M39.4018 30.22C37.554 28.3282 34.9874 27.9813 33.6 27.8867C35.4288 27.8236 39.4838 27.1615 39.4838 22.602C39.4838 16.9768 31.7774 17.2732 31.7774 17.2732C31.7774 17.2732 35.2459 17.9921 35.2459 22.5263C35.2459 24.5191 34.8991 25.8119 34.3378 26.5561C34.2937 26.6128 34.1991 26.7074 34.1549 26.7579C33.9287 26.9972 33.6439 27.1732 33.3288 27.2687C33.0135 27.3696 30.5288 27.8552 30.5288 27.8552C30.5288 27.8552 33.127 28.0128 34.5712 29.0408C34.8431 29.2578 35.0849 29.5102 35.2901 29.7912C36.6838 31.5002 35.2081 35.9651 37.1063 37.9011C38.6766 39.4777 41.6657 38.9921 41.6657 38.9921C39.7297 38.6579 41.8297 32.8435 39.4018 30.22Z" fill="#172C66"/>
</svg>
